<?xml version="1.0" encoding="utf-8"?>
<!-- Generator: Adobe Illustrator 23.0.6, SVG Export Plug-In . SVG Version: 6.00 Build 0)  -->
<svg version="1.1" id="Capa_1" xmlns="http://www.w3.org/2000/svg" xmlns:xlink="http://www.w3.org/1999/xlink" x="0px" y="0px"
	 viewBox="0 0 1224 792" style="enable-background:new 0 0 1224 792;" xml:space="preserve">
<style type="text/css">
	.st0{fill:#5F5543;}
	.st1{fill:#211E19;}
	.st2{fill:#706350;}
	.st3{fill:#B3A47F;}
	.st4{fill:#8A8C76;}
	.st5{fill:#B2AF97;}
	.st6{fill:#504B35;}
	.st7{fill:#372426;}
	.st8{fill:#433131;}
	.st9{fill:#5B5231;}
	.st10{fill:#898D7F;}
	.st11{fill:#CFC7A3;}
	.st12{fill:#3A3721;}
	.st13{fill:#87865F;}
	.st14{fill:#433A33;}
	.st15{fill:#635724;}
	.st16{fill:#11162C;}
	.st17{fill:none;}
	.st18{fill:#756C65;}
	.st19{fill:#272526;}
	.st20{fill:#53422D;}
	.st21{fill:#493D2D;}
	.st22{fill:#1D1316;}
	.st23{fill:#938761;}
	.st24{fill:#6D7066;}
	.st25{fill:#A9B0A3;}
</style>
<path class="st0" d="M770.56,232.15l14.1,7.85l6.68,8.77c0,0,5.54,3.05,8.51,4.56c2.97,1.52,8.02,3.54,9.03,5.05
	c1.01,1.52,6.57,5.61,6.57,5.61s1.01,2.47,4.04,4.49c3.03,2.02,1.52,5.05,6.06,6.57c4.55,1.52,1.97,3.03,6.54,5.05
	c4.58,2.02,9.12,4.04,9.12,4.04l3,1.1l3.64,5.97l2.73,6.93l4.28,6.15l8.15,4.6c0,0,6,7.2,6,9.64c0,2.44,2.53,5.45,2.53,5.45
	l3.03,8.27l-3.03,7.03l-2.53,5.83l-4.04,5.83l-10.07,8.48l-14.04,5.05l-11.76,2.65l-3.54,4.42l-8.08-4.42h-9.09l-6.06-1.14
	l-12.63,1.14l-11.14-3.66l-16.65-4.04l-11.49-1.26l-12.51-2.27l-15.92-2.53l-4.2-2.41l-34.41,15.54l4.25-94.51L770.56,232.15z"/>
<path class="st1" d="M795.23,324c0-3.46-2.02-6.49-3.03-9.02c-1.01-2.53-0.85-8.15-4.2-6.06c-3.35,2.08-9.02-4.04-9.02-4.04
	s-6.56-2.08-6.56,2.02c0,4.11-6.5,2.25-6.5,4.92c0,2.66,1.01,4.22,0,7.74c-1.01,3.51-3.93,5.75,0,6.55c3.93,0.8,4.55,2.1,4.55,2.1
	l2.53,3.46c0,0,5.91,2.53,7.5,2.53s9.18-2.02,9.18-2.02l5.55-3.96V324z"/>
<path class="st2" d="M360,401c0,0,1.82-5.56,4.59-13.8c4-11.92,9.98-29.44,15.27-43.78C383.01,334.86,413,281,422,272s19-23,35-33
	s29-13,39-21s25-11,35-15s10-9,24-7s28-0.46,28-0.46l29.5,7.46l-62.5,8l-36,12c0,0-23,8-34,17s-18,18-27,28s-18,11.54-26,30.27
	S416,310,406,335s-19,25-20,48s-5,31-9,48s-10,50-8,58s11,38,11,41s13,31,20,40s24,25,25,29s31,27,31,27l42,18l-38-10l-24-7
	c0,0-4-3-10-3s-9-4-17-14s-23-30-23-30s-27-37-26-43s-7-8-8-33s-1-34,0-58S360,401,360,401z"/>
<path class="st3" d="M772.42,311l-3.46,8.55c0,0-1.52,2.59,0,4.57c1.52,1.98-0.51,4,4.04,4s0-0.51,4.55,0
	c4.55,0.51,2.09-4.96,7.11-4c5.02,0.97,5.02,8.04,5.02,0.97c0-7.07,0.19-6.57-1.67-10.11s2.24-1.89-3.35-3.98
	c-5.59-2.08-5.59-2.08-5.59-2.08L772.42,311z"/>
<path class="st4" d="M685,356c0,0-27.71-26.87-29.22-41.02c-1.52-14.15-5.05-13.12-5.05-13.12l-14.32-7.62v-10.08l-6.7-7.15
	l-33.55-10.54l-57.6-2.47l-31.33,10.05l-51.03,20.18L434.47,324c0,0-16.17,24.52-17.18,32s-9.6,40.5-9.6,40.5s-0.51,31.15,0,36.71
	c0.51,5.56,2.53,36.38,2.53,36.38s2.02,15.66,3.54,19.71c1.52,4.04,7.06,17.18,7.06,17.18l21.74,16.17l27.28-21.73l7.25-7.92
	c0,0,17.46-11.18,17.91-14.82s4.22-9.98,7.21-16.61c3-6.63,7.54-12.19,7.54-12.19s3.03-4.55,7.07-9.6
	c4.04-5.05,10.61-8.08,10.61-8.08l8.59-9.09l26.61-14.15l14.82-11.95l9.09-3.71l29.61-14.75l23.28-13.52l19.48-7.25l14.16-2.67
	L685,356z"/>
<path class="st5" d="M562.64,408.45h15.33l17.68,6.1l14.15,7.72l6.37,4.64l14.11,3.26c0,0,9.33,1.52,10.85,3.03
	c1.52,1.52,11.12,4.55,11.12,4.55l8.08-0.51l27.79,7.07h-38.4L685,453.7l-46.4-4.83c0,0-10.68-1.01-6.1,1.52
	c4.58,2.53,7.61,7.07,7.61,7.07s5.56,8.08,6.57,9.09c1.01,1.01,2.53,6.06,2.53,6.06l-12.8-8.59l-11.03-11.62l-9.21-4.04
	c0,0-5.51,0.51-4.17,3.54c1.34,3.03,0.5,8.59,0.5,8.59l-0.5,3.54h-5.23l-1.01-4.04l-9.09-12.63l-5.16-3.54l-3.94-4.55L564,435.23
	l-17.76-1.49l-22.93,0.33l2.63-8.95l26.27-16.67l10.44-2.61V408.45z"/>
<path class="st6" d="M730,210c0,0-9,5-12,6s-8,7-8-6s0-15,0-19s4-10,0-14s-7-9-7-16s1-14,0-17s4,5,6,8s1.87,8,7.43,13
	c5.57,5,6.57,12.59,7.57,15.79c1,3.21,3.88,10.69,6,14.75c0.96,1.84,1.68,9.71,3.68,13.96C736.75,216.03,730,210,730,210z"/>
<path class="st7" d="M721.76,210c0,0-9,5-12,6s-8,7-8-6s0-15,0-19s4-10,0-14s-7-9-7-16s8.11-17.66,8.11-17.66s1.34,6.23,3.34,9.23
	s-3.58,7.43,1.98,12.43s6.57,12.59,7.57,15.79c1,3.21,3,11.3,6,14.75c3,3.46-6,4.46,0,8.46S721.76,210,721.76,210z"/>
<path class="st7" d="M732.35,216.75c0,0-0.43-20.7,2.57-25.24c3-4.54,3.01-5.17,6.01-8.84c3-3.67,0.81-21.67,4.94-15.67
	s3.06,15.67,3.06,15.67v12.88c0,0-4,10.46,0,13.46s2,4.5,4,9.25s1.68,7.26,1.68,7.26L732.35,216.75z"/>
<path class="st8" d="M769,232.15c0,0,5.63-8.08,8.06-10.54c1.53-1.54,11.76-5.37,11.76-5.37c1.27,0.38-0.41,1.65-0.66,2.02
	c0,0-8.67,7.32-9.55,10.19c-0.93,3.03,0,12.67,0,12.67L769,232.15z"/>
<path class="st9" d="M741,218.25c-3.98-4.17,1-18.16,4-22.71c3-4.54-3-9.21,0-12.88c3-3.67-3.27-21.67,0.87-15.67
	s7.13,15.67,7.13,15.67v12.88c0,0-3.23,9.07,0.77,12.07s1.03,6.99,3.22,11.65C760.67,227.1,759,223,759,223
	S750.93,228.67,741,218.25z"/>
<path class="st10" d="M775,233c0,0,3.52-10.04,5.96-12.51c1.53-1.54,7.79-3.82,7.79-3.82c0.43-0.12,0.77,0.36,0.52,0.73
	c0,0-5.88,7.06-6.77,9.93c-0.93,3.03-0.32,14.03-0.32,14.03L775,233z"/>
<path class="st11" d="M532,639l-27-21c0,0-8-5-10-9s4-8,0-14s-9.25-30-13.13-33S474,529,474,529s-11-15-8-16s-0.52-12-0.52-12
	S435,505,432,501s-8-3-10-15s-14-26-9-39s3-9.46,5-27.23s-6-6.77,3-23.77s2-12,12-27s7-18,16-32s18.79-7,22.9-19s9.1-5,21.1-15
	s12-10.19,20-15.09s30-0.91,30-4.91s-10-12,13-11s24,0,30,0s13.69,7.73,20.1,7.86c6.4,0.14,17.32,5.95,23.61,8.04
	s6.39,16.09,6.39,16.09l4.72,9L663,337c0,0,8,22,12,22s12,19,10-3s9.74-33,17.87-32c8.13,1,14.13,7,23.13,0s15-12.19,15-12.19
	l9,7.19c0,0,13-5.38,13-7.19c0-1.81-9-7.81,10-10.81s19,3,24,5s14,10,14,10s14,6,16,8s6,13,6,13h10l12-8l8-5l-13-13l-9-17l1-6.09
	L829,282c0,0-2-2.17-10-10.09c-8-7.91-7-5.91-16-12.91s-7.5-7-15-13s-29-23-29-23s-7,3.5-18-4.75S730,210,730,210l-12,6l-8-6
	c0,0-13,3-25,0s-38-9-38-9s3.82-1-10.59,0c-14.41,1-11.61,5.11-23.91,2s-27.18,3.48-27.18,3.48L550,211c0,0-24.32-1.26-35,7.25
	c-10.68,8.51-21,17.75-35,21.75s-16.41,16.02-21.7,22.01s-25.72,25.89-25.72,25.89S419.22,291.34,416,306s-11,23-16,31
	s-12.45,30.26-13.23,38.13C386,383,377,385,377,396.5s-5,31.5-6,37.5s0.13,26.27-0.65,32.05s-1.82,21.5,0,27.99
	c1.82,6.48,6.6,23.43,6.6,23.43s5.15,19.41,8.89,27.08c3.75,7.67,6.16,16.3,14.16,25.46s5,31,15,30s24.01,12.54,28.51,16.14
	c4.49,3.6,26.05,11.63,28.06,16.53C473.59,637.58,493,644,493,644h18h15L532,639z"/>
<path class="st12" d="M471.86,497.38l18.69-15.66l7.58-11.12l7.07-15.66l4.55-5.56l7.07-9.6c0,0,0.51-4.55,4.04-5.05
	c3.54-0.51,6.57-3.03,6.57-3.03l8.59-9.09l9.09-2.83l17.51-13.93l14.82-9.35l2.53-0.5l6.57-3.21l11.62-5.56l13.82-6.06l9.42-7.07
	l32.84-15.16l7.07-2.53h5.24l10.93-3.03l-11.9-14.07l-5.21-5.13L640.81,313l-36.06,1.98l11.42,35.99l-6.87-13.29L602,324
	c0,0-4.33-2.91-4.33,5.15c0,8.06,8.08,15.99,8.08,15.99l6.24,12.79l0.5,5.23c0,0-2.7-3.2-4.22-4.22c-1.52-1.01-8.08-4.04-8.08-4.04
	s-1.52-4.04-2.03-6.06s-6.67-14.65-6.67-14.65V321l-3.43,13.18l5.74,16.79c0,0-1.19,6.96,2.35,8.48s4.05,6.06,4.05,6.06l-8.7-8.59
	l-9.49-11.78l-1.52-15.99c0,0-5.05-1.69-5.81-5.15s-3.79-19.66-3.79-19.66s-0.51-13.68-2.53-10.11s0.51,20.74,0.51,20.74l5.81,13.21
	c0,0-3.79,11.54,0,15.08s12.38,11.62,12.88,14.15s5.41,7.33,6.24,9.73s-4.73-4-4.73-4l-8.08-6.74c0,0-4.04-4.04-8.59-7.58
	s-9.43-4.9-9.77-9.53c-0.34-4.62-5.89-11.11-5.89-11.11s0,11.22,1.52,16.94c1.52,5.72,19.2,12.63,22.74,18.02s11.62,20.04,0.51,8.42
	c-7.57-7.92-16.08-13.15-20.9-16.67c-2.25-1.65-3.7-2.93-3.86-3.93c-0.51-3.14-1.52-0.97-4.55-11.66
	c-3.03-10.68-5.56-11.61-5.56-15.19c0-3.58-2.02-9.52-2.02-13.12s0,5.52,0-9.14c0-14.67-2.34-21.32-2.34-21.32s-1.2,14.44-1.2,16.86
	c0,2.42-0.51,8.49-0.51,11.52c0,3.03-0.96,11.4,3.03,15.08s4.04,15.74,5.56,18.77c1.52,3.03,23.75,25.26,25.52,28.8s-5.81,0-5.81,0
	l-6.23-8.42l-10.44-7.25l-6.57-10.77c0,0-4.04-0.78-3.03-10.96c1.01-10.18-2.02-11.71-3.03-13.18s-2.53-6.79-2.02-9.18
	c0.51-2.39-3.54,9.82-3.03,12.31c0.51,2.48-3.03-1.98,2.53,12.88c5.56,14.86,4.55,16.38,9.09,21.94c4.55,5.56,14.82,8.08,16.5,12.63
	s12.04,12.13,12.04,12.13s-12.38-4.55-14.4-2.53c-2.02,2.02-13.14-6.57-13.14-6.57s-13.14-12.13-14.15-14.65
	c-1.01-2.53-4.04-11.12-4.55-12.63c-0.51-1.52-6.57-18.15-6.57-18.17s-4.04-14.17-4.04-14.17l-2.53-16.82c0,0,0-17.03,1.01-20.57
	c1.01-3.54-3.33,10.32-3.33,10.32s-3.24,20-2.74,21.01c0.51,1.01,7.07,20.95,7.07,23.36s3.54,3.61,4.55,12.86
	c1.01,9.25,12.13,27.44,13.64,30.98S553.72,396,553.72,396l-18.19-8.8l-11.12-6.03l-5.56-14.02c0,0-9.09-14.55-9.09-16.18
	c0-1.63-9.09-18.69-9.09-18.69L495,308.92c0,0-0.11-17.74,0-14.68c0.11,3.06-3.56,19.27,0,24.32c3.56,5.05,3.14,13.72,3.14,13.72
	s4.55,6.64,6.57,12.86c2.02,6.22,1.52,11.12,5.05,18.02c3.54,6.9,3.54,8.42,8.08,15.49c4.55,7.07,6.06,5.49,9.09,8.55
	c3.03,3.07,6.06,4.08,10.11,6.1s11.62,7.58,11.62,7.58s-29.31-11.69-32.34-13.68c-3.03-1.98-11.62-10.07-13.64-15.63
	s-5.26-8.08-7.68-13.64c-2.42-5.56-6.97-7.9-6.97-12.79S485,333.21,485,329.15s-2.71-12.65-3.13-14.17
	c-0.41-1.52,0.41,13.37,0,17.29c-0.41,3.93-5.65,4.62,0,12.86s3.13,9.25,8.18,15.82c5.05,6.57,3.54,1.01,9.09,10.61
	s4.04,10.03,8.59,15.63c4.55,5.59,7.07,7.46,10.61,9.3c3.54,1.85,30.82,9.35,30.82,9.35s-19.71,1.44-21.22,0
	c-1.52-1.44-22.74-9.35-22.74-9.35L495,381.17l-13.13-18.02l-4.96-12.19c0,0-6.06-11.3-5.05-13.29S470.54,321,470.54,321
	s-3.34,24.49,0,24.14c3.34-0.35,2.33,5.72,3.85,8.24c1.52,2.53,2.53,4.89,4.04,9.77s3.03,6.4,5.56,11.95s4.55,10.03,6.57,12.09
	c2.02,2.06-1.22,6.46,4.44,8.8s10.21,4.87,12.74,6.89s8.08,5.56,9.6,5.56s9.09,3.54,9.09,3.54l-12.13,0.51l-12.13-6.65l-13.64-9.35
	c0,0-8.59-4.79-9.6-9.3c-1.01-4.51-6.57-11.08-6.57-12.6c0-1.52-14.15-13.64-14.15-18.69c0-5.05-4.55-27.71-4.55-27.71L449,337
	c0,0,2.65,12.34,4.17,17.89c1.52,5.56,1.52,7.83,4.04,12.25c2.53,4.42,4.55,9.98,4.55,9.98l8.59,13.64l11.53,5.73L495,409.97
	l12.23,4.59l12.63,5.22c0,0,0.51,2.83-1.52,2.83s-16.17-0.32-16.17-0.32l-7.18-2.51c0,0-10.19-3.24-13.13-9.8
	s-18.38-17.06-16.58-20.72s-11.12-13.26-9.6-17.68c1.52-4.42-6.69-20.6-6.69-20.6s-11.85-10.71-8.39,3.68
	c3.46,14.39,3.46,14.39,7,23.99c3.54,9.6,4.55,10.11,9.6,15.16c5.05,5.05,9.6,11.12,12.63,14.65s11.43,9,12.03,11.32
	c0.6,2.32,2.11,3.33,4.64,6.36c2.53,3.03-0.72,8.59,8.48,9.6s18.8,2.02,16.78,2.02c-2.02,0-10.11-3.54-11.62-5.05
	s-5.16-6.57-5.16-6.57l7.68,2.02l7.58,3.03l5.05,2.53l-3.03,7.07l-11.12-1.52l-3.03,6.06l-9.09-3.54l-7.17-7.58l-6.48-6.57
	l-9.6-5.37l-11.12-11.8l-8.08-13.97l-6.62-11.79l-5-13.14c0,0-4.04,10.03,0,15.63c4.04,5.59,5.05,6.95,6.57,9.3
	c1.52,2.35,1.52,5.22,5.56,9.35c4.04,4.12,4.53,13.55,10.61,13.93s7.58,2.32,13.14,8.89s3.86,6.06,11.02,11.62
	c1.62,1.26,2.72,2.07,3.49,2.62c2.62,1.87,1.34,0.59,3.68,2.94c3.03,3.03,3.03,6.06,3.03,6.06s-16.17-13.14-21.73-13.64
	c-5.56-0.51-4.55-5.05-12.13-4.04c-7.58,1.01-9.6,4.04-9.6,4.04l-0.51-5.05l-5.05-10.61l7.07,4.04c0,0,6.57,2.53,9.6,3.03
	c3.03,0.51,3.03-3.54,1.52-3.54c-1.52,0-3.03,3.9-8.08-3.86c-5.05-7.76-11.62-9.28-13.64-12.31s-7.07-7.07-9.6-8.59
	c-2.53-1.52-14.65-10.25-3.54-5.38s13.14,9.85,13.14,9.85l-6.06-9.85l-11.69-6.75c0,0,0.41,4.49-0.77,6.75s3.87,9.85,3.87,9.85
	s2.02-0.43,4.55,5.64c2.53,6.06,4.55,13.64,4.55,13.64l-10.11-5.35l4.04,7.38l7.58,9.6c0,0,4.04,7.58,5.05,11.12s0.51,0,2.53,9.09
	c2.02,9.09,12.13,17.68,2.02,9.09c-10.11-8.59-15.16-12.13-15.16-12.13s-7.07-1.52,0.51,8.08s4.55,18.69,4.55,18.69l-5.56,10.11
	l3.03,6.57l16.56,5.17l13.75,3.92L471.86,497.38z"/>
<path class="st13" d="M621.42,391.78v-35.87v-27.71l27.79,4.08l-1.6,15.94l1.6,18.93v7.96c0,0-1.52,2.02,0,6.06
	c1.52,4.04,0.51,5.56,3.54,10.61c3.03,5.05,9.09,14.07,9.09,14.07l32.84,33.93l8.18,4.55l17.58,4.04h9.6c0,0,3.03,8.08-4.04,6.06
	c-7.07-2.02-16.67-3.54-16.67-3.54l-6.47-0.51l14.9,4.37l5.21,4.22l12.13,7.58l10.61,8.08v6.06c0,0-12.63-8.08-18.69-10.61
	c-6.06-2.53-13.14-3.54-13.14-3.54l-11.02-4.55l2.43,4.55l4.55,6.57l7.93,15.66l5.72,7.58l-1.52,4.55l-4.2-6.06l-9.44-11.12
	c0,0-10.11-11.62-12.63-12.63c-2.53-1.01-12.13-11.12-12.13-11.12l-3.8-6.55l3.58,9.08c0,0-0.29,13.14,0.21,16.17s0,14.32,0,14.32
	h-3.03l-1.01-7.75l-3.03-14.15l-9.92-15.66c0,0-13.83-16.17-14.33-17.68c-0.51-1.52-14.49-18.29-15.83-17.99
	c-1.35,0.3-9.94-13.93-9.94-13.93S621.42,395.32,621.42,391.78z"/>
<path class="st7" d="M608.28,314.25c-3.5-7-23.5-12-26.5-14s-22-15-22-15V269c0,0,11.13,11.56,15,14.25c7.39,5.14,2.62,3,14.81,5
	c12.19,2,11.19,2,18.69,2s17.21,0,17.21,0s7.29,6,6.29,10s1.19,10,0.09,14s-4.09,10-11.09,7S608.28,314.25,608.28,314.25z"/>
<path class="st14" d="M616.17,498c0,0-12.76,18-15.96,21s1.8,6-8.7,9c-10.5,3-24.5,9-27.5,14s-16,15-16,15s-6,6-10,11s-7,5-12,9
	s-9,9-9,9s6-9-8,0s-14,9-14,9v14l10,9l12.05,9.37L526,644h12c0,0,7.17-3,17.58-7S566,634,570,624s9-22,9-22l7-16l7.81-15l6.39-11
	l11.8-9c0,0,1.34-3,4.17-11c2.83-8,6.83-10,7.83-17s4.41-13,5.71-17s0-13,0-13L616.17,498z"/>
<path class="st7" d="M650.03,315.19l5,11l5,9c0,0,13,6,5,6s-13,0-27,0s-19-3.3-25.13-5.22c-4.43-1.39-19.46-6.33-18.57-11.08
	c0.37-1.97,9.24,2.63,11.18,2.17c4.47-1.06,6.52-5.87,15.52-5.87S650.03,315.19,650.03,315.19z"/>
<path class="st15" d="M650.03,315.19L653,322l5,9c0,0,13,6,5,6s-13,0-27,0s-19-3.3-25.13-5.22c-4.43-1.39-17.76-3.03-16.87-7.78
	c0.37-1.97,7.54-0.66,9.48-1.13C607.96,321.81,610,317,619,317S650.03,315.19,650.03,315.19z"/>
<path class="st7" d="M631.46,284.06c0,0-23.76-1.57-25.26-7.57s-12.3-25-12.3-25s0.63-17.65,0-26c-0.63-8.35-6.39-14.72-6.39-14.72
	s-0.01-31.1,5.18-28.1s2.48,19.06,10.82,27.4c8.03,8.03-2.81,14.42,2.69,19.42s2.5,12,8.5,18s2.41,8,8.71,11
	S631.46,284.06,631.46,284.06z"/>
<path class="st15" d="M629.71,272c0,0-15.71-2-17.21-8s-12.3-25-12.3-25s0.63-17.65,0-26s-6.39-14.72-6.39-14.72
	s-5.19-18.28,0-15.28s-0.4,7.79,6.39,16.89C607,209,607,212,612.5,217s2.5,12,8.5,18s2.41,8,8.71,11S629.71,272,629.71,272z"/>
<path class="st15" d="M616.03,307.25c-3.5-7-23.5-12-26.5-14s-22-15-22-15l-7.75-6.25c0,0,13.75,4.25,22.75,4.25s2.62,3,14.81,5
	s11.19,2,18.69,2s17.21,0,17.21,0s7.29,6,6.29,10s1.19,10,0.09,14s-4.09,10-11.09,7S616.03,307.25,616.03,307.25z"/>
<path class="st16" d="M777.04,314.98c0,0-6.57,1.01-4.04,3.03s1.52,6.93,4.04,5.99s2.53-0.94,2.53-0.94s5.56,0.04,5.05-3.51
	c-0.51-3.56-3.69-4.57-4.12-4.57S777.04,314.98,777.04,314.98z"/>
<path class="st17" d="M759,328.19c0,0,1.54,3.46,9.28,5.99c7.75,2.53,4.05,4.63,12.22,2.82s9.68-1.81,14.73-2.82
	c5.05-1.01,3.03-6.41,7.58-5.99c4.55,0.43,9.6,0,9.6,0l7.07,4.73c0,0-5.05-8.26-7.58-8.81c-2.53-0.55-11.12-8.63-12.13-9.14
	c-1.01-0.51-0.1-2.71-4.55-3.98s-3.85-7.18-7.23-6.66c-3.38,0.53-15.58-0.03-15.58-0.03s-7.46,5.65-9.42,7.5
	c-1.96,1.84-4,12.31-4,12.31V328.19z"/>
<path class="st18" d="M841.21,284.16L841,294c0,0-1.14,5.34,2.82,5.33c3.96-0.01,5.98,2.51,5.98,2.51l5.05,2.47l-7-10.08
	c0,0-1.37-0.69-3.61-3.51C842,287.91,841.21,284.16,841.21,284.16z"/>
<path class="st19" d="M847.85,291.23l-6.64-7.07l9.6,3.54c0,0,3.54,0.51,4.04,3.54c0.51,3.03-4.28,6.93-4.28,6.93L847.85,291.23z"/>
<polygon class="st1" points="869,324.12 869,331.65 871.53,334.18 871.53,328.19 "/>
<polygon class="st20" points="761.88,381.17 784.65,381.17 803.82,381.17 816.45,378.64 825.55,374.6 836.16,369.55 840.85,364.49 
	817.46,367.15 795.23,366.01 761.88,359.44 730.05,353.73 721.97,350.96 717.77,345.14 685.28,363.15 683.36,366.51 700.24,371.57 
	721.46,377.63 741,381.17 "/>
<path class="st21" d="M648.2,345.14l-2.53,13.3h-6.57l4.55,4.72l-7.24,2.35l5.9,3.54h-5.9l11.79,9.6l-11.79-4.55l11.79,10.61h-9.6
	l9.6,8.59v8.59l10.61,3.54l10.11,10.61l14.44,16.67l11.83,12.13l7.68,2.53l-14.75-3.03l14.75,9.6l-4.65,12.63l-18.19-17.68
	l-1.01,17.68l-9.38-17.18c0,0-8.81-10.11-9.31-12.13c-0.51-2.02-27.82-31.41-27.82-31.41l3.91-9.85l-3.91-14.83h6.6l-8.82-14.02
	l10.34-16.18L648.2,345.14z"/>
<path class="st22" d="M756.83,381.17l5.27,11.62l6.18,7.58l4.14,12.13v7.28l-4.14,2.51l-6.18,5.37v7.58l6.18-5.56l10.25-7.4
	c0,0,1.1,1.33,6.12,2.85c5.02,1.52,5.03,6.06,5.03,6.06l5.55,4.04l4.61,9.6l7.01,6.57h2.53v-10.11l6.06-2.02c0,0-2.53,2.53,0,4.04
	c2.53,1.52,7.07,8.08,7.07,8.08l3.03,6.06l6.54,6.57v-9.09l-6.54-8.59c0,0-4.04-11.62-6.06-13.64s-4.55-10.11-4.55-10.11l10.61,7.58
	l6.54,2.02l3.06,3.03l-11.62-12.63c0,0-12.63-3.96-16.17-8.05c-3.54-4.08-11.12-7.27-11.37-8.71c-0.25-1.44-8.33-4.97-6.31-6.49
	c2.02-1.52-1.68-3.36-1.68-3.36l-7.5-14.83H756.83z"/>
<path class="st23" d="M863.63,343.02c0,0,0.95,0.69-2.59,2.87c-3.54,2.18-3.54,4.93-8.59,5.83c-5.05,0.9-3.54,4.44-10.61,4.44
	s-6.57-1.52-12.13,0c-5.56,1.52-4.04,3.03-9.6,4.55c-5.56,1.52-6.57,1.52-9.6,3.03c-3.03,1.52-6.06,3.03-7.58,3.03
	c-1.52,0-1.52-1.52-7.07,0c-5.56,1.52-6,1.52-10.58,0c-4.58-1.52-6.1,2.02-11.65-1.52c-5.56-3.54,0.51-1.52-11.12-5.05
	c-11.62-3.54-11.62-3.54-11.62-3.54s-3.87-1.89-9.26-1.2c-5.39,0.69-10.95-9.57-10.95-9.57l2.61-7.46c0,0,5.13-1.48,8.33-3.5
	s9-5.99,9-5.99l9-4.08l-5.71,10.06l8.36-3.21l-5.33,6.03l11.96-2.82l-4.35,5.13l8.49-3.3c0,0,5.22-4.03,8.08-1.83
	c2.85,2.2,7.5,5.13,7.5,5.13l1.68-7.15c0,0,2.07,4.58,5.55,2.02c3.48-2.56,2.14-4.08,4.86-5.03c2.72-0.95,3.23-0.95,7.77-0.95
	s5.04-0.95,7.58,2.83c2.54,3.78,4.04,1.9,4.04,1.9l-14.53-13.66l-8.37-4.28c0,0-4.03-6.06-6.31-6.06c-2.28,0,0.05-5.1-5.62-4.57
	c-5.67,0.53-16.63-2.95-16.37,0c0.26,2.95,9.77-10.17,16.37-6.19c6.6,3.98,9.63,6.44,12.35,7.84c2.71,1.4,8.84,4.66,11.87,5.81
	c3.03,1.15,9.6,2.16,10.61,3.17c1.01,1.01,4.61,3.01,6.06,6.02s11.12,8.15,11.12,8.15l6.34,7.85c0,0,2.76,6.46,3.26,8.14
	c0.51,1.68,0.97-10.96,0.97-10.96l5.09,2.82l-4.28-8.81l6.84,5.99l-0.04-8.08l8.15,3.05l-2.59-5.15l8.59-3
	c0,0-7.58,13.18-2.53,13.18c5.05,0,2.53,3.5,2.53,3.5L863.63,343.02z"/>
<polygon class="st22" points="525.93,435.23 538.05,435.23 549.16,433.21 564,435.23 578.47,435.23 591.5,433.21 587.57,439.27 
	593.81,436.24 603.74,427.65 591.5,427.65 581.51,419.77 578.47,425.63 570.39,414.55 562.64,422.28 555.23,414.55 546.24,417.18 
	"/>
<path class="st24" d="M495,453.93l-5.96,4.55l-4.55,8.08l-8.08,14.15c0,0-3.03,9.09-5.05,9.09c-2.02,0-5.88,11.2-5.88,11.2
	l-3.72,12.55l3.54,21.73l4.55,27.79l5.05,13.14l6.98,12.13v5.05c0,0-5.46-4.55-6.98-5.56c-1.52-1.01-4.55-4.04-4.55-4.04l-1.01,9.6
	l1.52,7.58l3.54,14.15l3.99,9.6h-3.48l-6.57-6.06l-2.02-7.58l-4.55-9.09l-4.55-4.55c0,0,1.52-5.56,0-8.08
	c-1.52-2.53-9.09-20.84-9.09-20.84l6.57,26.9l2.53,9.09l2.02,3.03v7.07l0.81,10.11L460,634l2.77,12.43l-5.05-6.57l-4.01-7.7
	l-1.85-9.38l-3.74-14.25v-9.09l-2.53-14.15v17.18v10.61v4.73v11.98l-3.54,3.5v-2.53v-5.56l1.45-9.07l-5.13,11.55v-15.76v-10.98
	v-10.61v-18.19l-4.41-15.66c0,0-3.03-16.67-3.03-18.19c0-1.52-2.45-15.92,0-19.2c2.45-3.28,1.52-12.63,1.52-12.63l5.05-26.27
	l3.54-13.64l6.06-12.63l5.05-14.65l0.2-3.55c0,0,9.23-1.66,10.06-1.39c0.83,0.27,16.28,7.85,16.28,7.85L495,453.93z"/>
<path class="st1" d="M829.59,342.26c0,0,1.01,0.51,4.04,0c3.03-0.51,1.52-6.06,3.03-0.51s3.54,8.08,0,8.08c-3.54,0-4.04,2.53-7.07,0
	s-4.04-4.71-4.04-4.71L829.59,342.26z"/>
<path class="st25" d="M465.8,561.55l-13.14-2.02v-5.56h9.76l-3.19-8.59l-6.57-5.01h-8.59l15.16-5.09l-7.58-8.59l-7.58-13.14
	l10.86-5.05v-11.62l3.28-7.07l-9.09-6.06c0,0,6.57-6.06,10.61-6.06s6.89,1.52,2.69-3.54c-4.2-5.05-7.42-11.12,0-7.58
	s17.02,4.96,11.46-1.06s-18.69-6.02-6.06-8.54c12.63-2.53,14.43-0.51,7.72-7.07s-14.29-10.18-8.23-10.65
	c6.06-0.47,14.56,5.24,14.56,5.24l13.13,9.46l-16.29,22.75l-16.95,36.87l8.08,49.52L465.8,561.55z"/>
</svg>
